<svg xmlns="http://www.w3.org/2000/svg" viewBox="0 0 800 450" fill="none">
  <rect width="800" height="450" fill="#f8fafc"/>
  <!-- Top nav -->
  <rect width="800" height="48" fill="#fff" stroke="#e2e8f0" stroke-width="1"/>
  <text x="24" y="30" font-family="system-ui,sans-serif" font-size="12" fill="#f59e0b">👋</text>
  <text x="44" y="30" font-family="system-ui,sans-serif" font-size="12" fill="#1e293b">Hello Marcos Astudillo!</text>
  <text x="320" y="30" font-family="system-ui,sans-serif" font-size="16" font-weight="700" fill="#1e293b" text-anchor="middle" x="400">Daily Update App</text>
  <rect x="666" y="12" width="118" height="24" rx="12" fill="#3b82f6"/>
  <text x="725" y="28" font-family="system-ui,sans-serif" font-size="11" font-weight="600" fill="#fff" text-anchor="middle">+ Add Update</text>
  <!-- Main grid: 3 panels -->
  <!-- Left panel: updates list -->
  <rect x="16" y="62" width="340" height="372" rx="8" fill="#fff" stroke="#e2e8f0" stroke-width="1.2"/>
  <text x="32" y="88" font-family="system-ui,sans-serif" font-size="13" font-weight="700" fill="#1e293b">Your Updates</text>
  <rect x="32" y="96" width="220" height="28" rx="4" fill="#f1f5f9" stroke="#e2e8f0" stroke-width="1"/>
  <text x="56" y="114" font-family="system-ui,sans-serif" font-size="11" fill="#94a3b8">🔍 Search update...</text>
  <rect x="32" y="138" width="308" height="56" rx="6" fill="#f8fafc" stroke="#e2e8f0" stroke-width="1"/>
  <text x="48" y="160" font-family="system-ui,sans-serif" font-size="12" fill="#334155">testing new features added</text>
  <text x="48" y="178" font-family="system-ui,sans-serif" font-size="10" fill="#94a3b8">2025-05-17</text>
  <rect x="32" y="202" width="308" height="56" rx="6" fill="#f8fafc" stroke="#e2e8f0" stroke-width="1"/>
  <text x="48" y="224" font-family="system-ui,sans-serif" font-size="12" fill="#334155">working on new features</text>
  <text x="48" y="242" font-family="system-ui,sans-serif" font-size="10" fill="#94a3b8">2025-05-17</text>
  <!-- Center panel: calendar -->
  <rect x="372" y="62" width="248" height="372" rx="8" fill="#fff" stroke="#e2e8f0" stroke-width="1.2"/>
  <text x="388" y="88" font-family="system-ui,sans-serif" font-size="12" font-weight="700" fill="#1e293b">Words by Day</text>
  <!-- Mini calendar -->
  <rect x="388" y="96" width="216" height="172" rx="6" fill="#f8fafc" stroke="#e2e8f0" stroke-width="1"/>
  <text x="496" y="116" font-family="system-ui,sans-serif" font-size="11" font-weight="600" fill="#1e293b" text-anchor="middle">May 2025</text>
  <!-- Day labels -->
  <text x="396" y="132" font-family="system-ui,sans-serif" font-size="9" fill="#94a3b8">SUN</text>
  <text x="420" y="132" font-family="system-ui,sans-serif" font-size="9" fill="#94a3b8">MON</text>
  <text x="446" y="132" font-family="system-ui,sans-serif" font-size="9" fill="#94a3b8">TUE</text>
  <text x="472" y="132" font-family="system-ui,sans-serif" font-size="9" fill="#94a3b8">WED</text>
  <text x="498" y="132" font-family="system-ui,sans-serif" font-size="9" fill="#94a3b8">THU</text>
  <text x="524" y="132" font-family="system-ui,sans-serif" font-size="9" fill="#94a3b8">FRI</text>
  <text x="550" y="132" font-family="system-ui,sans-serif" font-size="9" fill="#94a3b8">SAT</text>
  <!-- Highlight: day 18 -->
  <rect x="389" y="160" width="20" height="20" rx="10" fill="#3b82f6"/>
  <text x="399" y="174" font-family="system-ui,sans-serif" font-size="10" font-weight="700" fill="#fff" text-anchor="middle">18</text>
  <!-- Row of numbers -->
  <text x="421" y="174" font-family="system-ui,sans-serif" font-size="10" fill="#475569">19</text>
  <text x="447" y="174" font-family="system-ui,sans-serif" font-size="10" fill="#475569">20</text>
  <text x="473" y="174" font-family="system-ui,sans-serif" font-size="10" fill="#475569">21</text>
  <text x="499" y="174" font-family="system-ui,sans-serif" font-size="10" fill="#475569">22</text>
  <text x="525" y="174" font-family="system-ui,sans-serif" font-size="10" fill="#475569">23</text>
  <text x="551" y="174" font-family="system-ui,sans-serif" font-size="10" fill="#475569">24</text>
  <text x="388" y="290" font-family="system-ui,sans-serif" font-size="11" fill="#475569">5/18/2025: 103 words</text>
  <!-- Right panel: charts -->
  <rect x="636" y="62" width="148" height="172" rx="8" fill="#fff" stroke="#e2e8f0" stroke-width="1.2"/>
  <text x="652" y="88" font-family="system-ui,sans-serif" font-size="11" font-weight="700" fill="#1e293b">Updates per Day</text>
  <!-- Chart line -->
  <polyline points="652,146 668,120 700,148 732,152 764,152" stroke="#3b82f6" stroke-width="2" fill="none"/>
  <text x="652" y="222" font-family="system-ui,sans-serif" font-size="10" fill="#94a3b8">2025-05-16</text>
  <rect x="636" y="248" width="148" height="172" rx="8" fill="#fff" stroke="#e2e8f0" stroke-width="1.2"/>
  <text x="652" y="274" font-family="system-ui,sans-serif" font-size="11" font-weight="700" fill="#1e293b">Top 5 Words</text>
  <text x="652" y="292" font-family="system-ui,sans-serif" font-size="10" fill="#475569">1. new (7)</text>
  <text x="652" y="308" font-family="system-ui,sans-serif" font-size="10" fill="#475569">2. posting (6)</text>
  <text x="652" y="324" font-family="system-ui,sans-serif" font-size="10" fill="#475569">3. testing (5)</text>
  <text x="652" y="340" font-family="system-ui,sans-serif" font-size="10" fill="#475569">4. checking (4)</text>
  <!-- Pie chart placeholder -->
  <circle cx="692" cy="396" r="30" fill="#93c5fd" stroke="#fff" stroke-width="2"/>
  <path d="M692 396 L722 396 A30 30 0 0 1 707 422 Z" fill="#3b82f6"/>
  <path d="M692 396 L707 422 A30 30 0 0 1 668 410 Z" fill="#bfdbfe"/>
</svg>
