<svg xmlns="http://www.w3.org/2000/svg" viewBox="0 0 800 450" fill="none">
  <rect width="800" height="450" fill="#f8fafc"/>
  <!-- Nav bar -->
  <rect width="800" height="52" fill="#1e293b"/>
  <text x="24" y="33" font-family="system-ui,sans-serif" font-size="15" font-weight="700" fill="#f1f5f9">Hotel Booker</text>
  <text x="660" y="33" font-family="system-ui,sans-serif" font-size="13" fill="#94a3b8">Reservations</text>
  <text x="742" y="33" font-family="system-ui,sans-serif" font-size="13" fill="#94a3b8">Logout</text>
  <!-- Form section -->
  <text x="32" y="94" font-family="system-ui,sans-serif" font-size="20" font-weight="700" fill="#1e293b">Make a Reservation</text>
  <!-- Field labels -->
  <text x="32" y="122" font-family="system-ui,sans-serif" font-size="11" fill="#64748b">Guest Name</text>
  <rect x="32" y="128" width="736" height="32" rx="4" fill="#fff" stroke="#cbd5e1" stroke-width="1.2"/>
  <text x="32" y="182" font-family="system-ui,sans-serif" font-size="11" fill="#64748b">Email</text>
  <rect x="32" y="188" width="230" height="32" rx="4" fill="#fff" stroke="#cbd5e1" stroke-width="1.2"/>
  <text x="284" y="182" font-family="system-ui,sans-serif" font-size="11" fill="#64748b">Phone</text>
  <rect x="284" y="188" width="230" height="32" rx="4" fill="#fff" stroke="#cbd5e1" stroke-width="1.2"/>
  <text x="536" y="182" font-family="system-ui,sans-serif" font-size="11" fill="#64748b">Room Number</text>
  <rect x="536" y="188" width="232" height="32" rx="4" fill="#fff" stroke="#cbd5e1" stroke-width="1.2"/>
  <!-- Button -->
  <rect x="32" y="234" width="152" height="34" rx="5" fill="#3b82f6"/>
  <text x="108" y="256" font-family="system-ui,sans-serif" font-size="13" font-weight="600" fill="#fff" text-anchor="middle">Create Reservation</text>
  <!-- Divider -->
  <line x1="32" y1="284" x2="768" y2="284" stroke="#e2e8f0" stroke-width="1"/>
  <!-- Cards row 1 -->
  <text x="32" y="320" font-family="system-ui,sans-serif" font-size="16" font-weight="700" fill="#1e293b">Existing Reservations</text>
  <rect x="32" y="330" width="228" height="104" rx="6" fill="#fff" stroke="#e2e8f0" stroke-width="1.2"/>
  <text x="48" y="350" font-family="system-ui,sans-serif" font-size="13" font-weight="700" fill="#1e293b">Marcos</text>
  <text x="48" y="368" font-family="system-ui,sans-serif" font-size="11" fill="#475569">Room 2 · 2025-05-07</text>
  <rect x="286" y="330" width="228" height="104" rx="6" fill="#fff" stroke="#e2e8f0" stroke-width="1.2"/>
  <text x="302" y="350" font-family="system-ui,sans-serif" font-size="13" font-weight="700" fill="#1e293b">Juana</text>
  <text x="302" y="368" font-family="system-ui,sans-serif" font-size="11" fill="#475569">Room 1 · 2025-05-15</text>
  <rect x="540" y="330" width="228" height="104" rx="6" fill="#fff" stroke="#e2e8f0" stroke-width="1.2"/>
  <text x="556" y="350" font-family="system-ui,sans-serif" font-size="13" font-weight="700" fill="#1e293b">Marcos</text>
  <text x="556" y="368" font-family="system-ui,sans-serif" font-size="11" fill="#475569">Room 123 · 2025-05-09</text>
</svg>
