<svg xmlns="http://www.w3.org/2000/svg" viewBox="0 0 800 450" fill="none">
  <rect width="800" height="450" fill="#0f172a"/>
  <!-- Header bar -->
  <rect width="800" height="48" fill="#1e293b"/>
  <text x="24" y="30" font-family="system-ui,sans-serif" font-size="14" font-weight="700" fill="#f1f5f9">JAP Simulation Suite</text>
  <rect x="580" y="10" width="88" height="28" rx="5" fill="#334155"/>
  <text x="624" y="28" font-family="system-ui,sans-serif" font-size="11" fill="#94a3b8" text-anchor="middle">Cellular Automata</text>
  <rect x="676" y="10" width="112" height="28" rx="5" fill="#334155"/>
  <text x="732" y="28" font-family="system-ui,sans-serif" font-size="11" fill="#94a3b8" text-anchor="middle">Game of Life</text>
  <!-- CA Grid (left panel) -->
  <rect x="16" y="62" width="360" height="370" rx="8" fill="#0f172a" stroke="#1e293b" stroke-width="1.5"/>
  <text x="32" y="86" font-family="system-ui,sans-serif" font-size="12" font-weight="600" fill="#7c3aed">▸ Cellular Automata</text>
  <!-- Grid cells -->
  <g opacity="0.9">
    <!-- Row 1 -->
    <rect x="32" y="96" width="16" height="16" rx="1" fill="#334155"/>
    <rect x="50" y="96" width="16" height="16" rx="1" fill="#7c3aed"/>
    <rect x="68" y="96" width="16" height="16" rx="1" fill="#334155"/>
    <rect x="86" y="96" width="16" height="16" rx="1" fill="#7c3aed"/>
    <rect x="104" y="96" width="16" height="16" rx="1" fill="#7c3aed"/>
    <rect x="122" y="96" width="16" height="16" rx="1" fill="#334155"/>
    <rect x="140" y="96" width="16" height="16" rx="1" fill="#7c3aed"/>
    <rect x="158" y="96" width="16" height="16" rx="1" fill="#334155"/>
    <rect x="176" y="96" width="16" height="16" rx="1" fill="#7c3aed"/>
    <rect x="194" y="96" width="16" height="16" rx="1" fill="#7c3aed"/>
    <!-- Row 2 -->
    <rect x="32" y="114" width="16" height="16" rx="1" fill="#7c3aed"/>
    <rect x="50" y="114" width="16" height="16" rx="1" fill="#334155"/>
    <rect x="68" y="114" width="16" height="16" rx="1" fill="#7c3aed"/>
    <rect x="86" y="114" width="16" height="16" rx="1" fill="#334155"/>
    <rect x="104" y="114" width="16" height="16" rx="1" fill="#334155"/>
    <rect x="122" y="114" width="16" height="16" rx="1" fill="#7c3aed"/>
    <rect x="140" y="114" width="16" height="16" rx="1" fill="#334155"/>
    <rect x="158" y="114" width="16" height="16" rx="1" fill="#7c3aed"/>
    <rect x="176" y="114" width="16" height="16" rx="1" fill="#334155"/>
    <rect x="194" y="114" width="16" height="16" rx="1" fill="#334155"/>
    <!-- Row 3 -->
    <rect x="32" y="132" width="16" height="16" rx="1" fill="#334155"/>
    <rect x="50" y="132" width="16" height="16" rx="1" fill="#7c3aed"/>
    <rect x="68" y="132" width="16" height="16" rx="1" fill="#7c3aed"/>
    <rect x="86" y="132" width="16" height="16" rx="1" fill="#7c3aed"/>
    <rect x="104" y="132" width="16" height="16" rx="1" fill="#334155"/>
    <rect x="122" y="132" width="16" height="16" rx="1" fill="#334155"/>
    <rect x="140" y="132" width="16" height="16" rx="1" fill="#7c3aed"/>
    <rect x="158" y="132" width="16" height="16" rx="1" fill="#7c3aed"/>
    <rect x="176" y="132" width="16" height="16" rx="1" fill="#334155"/>
    <rect x="194" y="132" width="16" height="16" rx="1" fill="#7c3aed"/>
    <!-- Rows 4-8 (abbreviated) -->
    <rect x="32" y="150" width="16" height="16" rx="1" fill="#7c3aed"/>
    <rect x="50" y="150" width="16" height="16" rx="1" fill="#334155"/>
    <rect x="68" y="150" width="16" height="16" rx="1" fill="#334155"/>
    <rect x="86" y="150" width="16" height="16" rx="1" fill="#7c3aed"/>
    <rect x="104" y="150" width="16" height="16" rx="1" fill="#7c3aed"/>
    <rect x="122" y="150" width="16" height="16" rx="1" fill="#334155"/>
    <rect x="140" y="150" width="16" height="16" rx="1" fill="#7c3aed"/>
    <rect x="158" y="150" width="16" height="16" rx="1" fill="#334155"/>
    <rect x="176" y="150" width="16" height="16" rx="1" fill="#7c3aed"/>
    <rect x="194" y="150" width="16" height="16" rx="1" fill="#334155"/>
  </g>
  <!-- Generation counter -->
  <text x="32" y="196" font-family="monospace,sans-serif" font-size="11" fill="#64748b">Generation: 42 · Rule 110</text>
  <!-- Buttons -->
  <rect x="32" y="206" width="56" height="24" rx="4" fill="#7c3aed"/>
  <text x="60" y="222" font-family="system-ui,sans-serif" font-size="11" fill="#fff" text-anchor="middle">▶ Play</text>
  <rect x="96" y="206" width="56" height="24" rx="4" fill="#334155"/>
  <text x="124" y="222" font-family="system-ui,sans-serif" font-size="11" fill="#94a3b8" text-anchor="middle">Step</text>
  <rect x="160" y="206" width="56" height="24" rx="4" fill="#334155"/>
  <text x="188" y="222" font-family="system-ui,sans-serif" font-size="11" fill="#94a3b8" text-anchor="middle">Reset</text>
  <!-- Right panel: Game of Life + Turing Machine -->
  <rect x="392" y="62" width="392" height="172" rx="8" fill="#0f172a" stroke="#1e293b" stroke-width="1.5"/>
  <text x="408" y="86" font-family="system-ui,sans-serif" font-size="12" font-weight="600" fill="#22c55e">▸ Conway's Game of Life</text>
  <!-- GoL grid -->
  <g opacity="0.85">
    <rect x="408" y="96" width="12" height="12" rx="1" fill="#334155"/>
    <rect x="422" y="96" width="12" height="12" rx="1" fill="#22c55e"/>
    <rect x="436" y="96" width="12" height="12" rx="1" fill="#334155"/>
    <rect x="450" y="96" width="12" height="12" rx="1" fill="#22c55e"/>
    <rect x="464" y="96" width="12" height="12" rx="1" fill="#22c55e"/>
    <rect x="478" y="96" width="12" height="12" rx="1" fill="#334155"/>
    <rect x="408" y="110" width="12" height="12" rx="1" fill="#22c55e"/>
    <rect x="422" y="110" width="12" height="12" rx="1" fill="#334155"/>
    <rect x="436" y="110" width="12" height="12" rx="1" fill="#22c55e"/>
    <rect x="450" y="110" width="12" height="12" rx="1" fill="#334155"/>
    <rect x="464" y="110" width="12" height="12" rx="1" fill="#334155"/>
    <rect x="478" y="110" width="12" height="12" rx="1" fill="#22c55e"/>
    <rect x="408" y="124" width="12" height="12" rx="1" fill="#334155"/>
    <rect x="422" y="124" width="12" height="12" rx="1" fill="#22c55e"/>
    <rect x="436" y="124" width="12" height="12" rx="1" fill="#22c55e"/>
    <rect x="450" y="124" width="12" height="12" rx="1" fill="#22c55e"/>
    <rect x="464" y="124" width="12" height="12" rx="1" fill="#334155"/>
    <rect x="478" y="124" width="12" height="12" rx="1" fill="#334155"/>
    <rect x="408" y="138" width="12" height="12" rx="1" fill="#22c55e"/>
    <rect x="422" y="138" width="12" height="12" rx="1" fill="#334155"/>
    <rect x="436" y="138" width="12" height="12" rx="1" fill="#334155"/>
    <rect x="450" y="138" width="12" height="12" rx="1" fill="#22c55e"/>
    <rect x="464" y="138" width="12" height="12" rx="1" fill="#22c55e"/>
    <rect x="478" y="138" width="12" height="12" rx="1" fill="#334155"/>
  </g>
  <text x="508" y="108" font-family="monospace,sans-serif" font-size="10" fill="#64748b">Live: 18</text>
  <text x="508" y="124" font-family="monospace,sans-serif" font-size="10" fill="#64748b">Dead: 42</text>
  <text x="508" y="140" font-family="monospace,sans-serif" font-size="10" fill="#64748b">Gen: 7</text>
  <!-- Turing Machine panel -->
  <rect x="392" y="248" width="392" height="184" rx="8" fill="#0f172a" stroke="#1e293b" stroke-width="1.5"/>
  <text x="408" y="272" font-family="system-ui,sans-serif" font-size="12" font-weight="600" fill="#f59e0b">▸ Turing Machine</text>
  <!-- Tape -->
  <text x="408" y="296" font-family="monospace,sans-serif" font-size="10" fill="#64748b">Tape:</text>
  <rect x="408" y="302" width="360" height="28" rx="4" fill="#1e293b"/>
  <text x="416" y="320" font-family="monospace,sans-serif" font-size="12" fill="#f59e0b">0  1  1  0  [1]  0  1  0  1  1</text>
  <!-- Head indicator -->
  <rect x="496" y="332" width="18" height="8" rx="2" fill="#f59e0b"/>
  <text x="505" y="349" font-family="monospace,sans-serif" font-size="9" fill="#f59e0b" text-anchor="middle">▲ HEAD</text>
  <text x="408" y="376" font-family="monospace,sans-serif" font-size="10" fill="#64748b">State: q1 · Step: 12 · Accepted: false</text>
  <!-- Stack badges -->
  <rect x="408" y="392" width="44" height="20" rx="10" fill="#1e293b" stroke="#334155" stroke-width="1"/>
  <text x="430" y="406" font-family="monospace,sans-serif" font-size="9" fill="#94a3b8" text-anchor="middle">Java</text>
  <rect x="460" y="392" width="54" height="20" rx="10" fill="#1e293b" stroke="#334155" stroke-width="1"/>
  <text x="487" y="406" font-family="monospace,sans-serif" font-size="9" fill="#94a3b8" text-anchor="middle">JavaFX</text>
  <rect x="522" y="392" width="46" height="20" rx="10" fill="#1e293b" stroke="#334155" stroke-width="1"/>
  <text x="545" y="406" font-family="monospace,sans-serif" font-size="9" fill="#94a3b8" text-anchor="middle">Swing</text>
  <rect x="576" y="392" width="38" height="20" rx="10" fill="#1e293b" stroke="#334155" stroke-width="1"/>
  <text x="595" y="406" font-family="monospace,sans-serif" font-size="9" fill="#94a3b8" text-anchor="middle">MVC</text>
</svg>
